solid OpenSCAD_Model
  facet normal -1 0 0
    outer loop
      vertex 0 100 6
      vertex 0 97 2
      vertex 0 98 5.5
    endloop
  endfacet
  facet normal -1 0 0
    outer loop
      vertex 0 98 0
      vertex 0 0 2
      vertex 0 97 2
    endloop
  endfacet
  facet normal -1 0 0
    outer loop
      vertex 0 0 2
      vertex 0 -2 6
      vertex 0 0 6
    endloop
  endfacet
  facet normal -1 -0 0
    outer loop
      vertex 0 0 2
      vertex 0 -4 0
      vertex 0 -2 6
    endloop
  endfacet
  facet normal -1 0 0
    outer loop
      vertex 0 -4 0
      vertex 0 0 2
      vertex 0 98 0
    endloop
  endfacet
  facet normal -1 0 0
    outer loop
      vertex 0 97 2
      vertex 0 100 6
      vertex 0 98 0
    endloop
  endfacet
  facet normal -1 0 0
    outer loop
      vertex 0 98 8
      vertex 0 100 6
      vertex 0 98 5.5
    endloop
  endfacet
  facet normal -1 0 0
    outer loop
      vertex 0 100 6
      vertex 0 98 8
      vertex 0 100 10
    endloop
  endfacet
  facet normal -1 0 0
    outer loop
      vertex 0 95 10
      vertex 0 98 8
      vertex 0 95 8
    endloop
  endfacet
  facet normal -1 0 0
    outer loop
      vertex 0 98 8
      vertex 0 95 10
      vertex 0 100 10
    endloop
  endfacet
  facet normal -1 -0 0
    outer loop
      vertex 0 3 6
      vertex 0 0 2
      vertex 0 0 6
    endloop
  endfacet
  facet normal 0 0 -1
    outer loop
      vertex 0 -4 0
      vertex 11 98 0
      vertex 11 -4 0
    endloop
  endfacet
  facet normal -0 0 -1
    outer loop
      vertex 11 98 0
      vertex 0 -4 0
      vertex 0 98 0
    endloop
  endfacet
  facet normal 0 -0.948683 0.316228
    outer loop
      vertex 0 -2 6
      vertex 0 -4 0
      vertex 5.5 -2 6
    endloop
  endfacet
  facet normal 8.22486e-08 -0.948683 0.316228
    outer loop
      vertex 11 -4 0
      vertex 5.5 -2 6
      vertex 0 -4 0
    endloop
  endfacet
  facet normal 8.22486e-08 -0.948683 0.316228
    outer loop
      vertex 5.5 -2 6
      vertex 11 -4 0
      vertex 11 -2 6
    endloop
  endfacet
  facet normal 1 -0 0
    outer loop
      vertex 11 0 6
      vertex 11 0 2
      vertex 11 3 6
    endloop
  endfacet
  facet normal 1 0 -0
    outer loop
      vertex 11 0 2
      vertex 11 0 6
      vertex 11 -2 6
    endloop
  endfacet
  facet normal 1 0 0
    outer loop
      vertex 11 100 10
      vertex 11 98 8
      vertex 11 100 6
    endloop
  endfacet
  facet normal 1 -0 0
    outer loop
      vertex 11 95 10
      vertex 11 98 8
      vertex 11 100 10
    endloop
  endfacet
  facet normal 1 0 0
    outer loop
      vertex 11 98 8
      vertex 11 95 10
      vertex 11 95 8
    endloop
  endfacet
  facet normal 1 0 0
    outer loop
      vertex 11 98 5.5
      vertex 11 100 6
      vertex 11 98 8
    endloop
  endfacet
  facet normal 1 0 0
    outer loop
      vertex 11 97 2
      vertex 11 100 6
      vertex 11 98 5.5
    endloop
  endfacet
  facet normal 1 0 0
    outer loop
      vertex 11 100 6
      vertex 11 97 2
      vertex 11 98 0
    endloop
  endfacet
  facet normal 1 -0 0
    outer loop
      vertex 11 0 2
      vertex 11 98 0
      vertex 11 97 2
    endloop
  endfacet
  facet normal 1 0 0
    outer loop
      vertex 11 0 2
      vertex 11 -4 0
      vertex 11 98 0
    endloop
  endfacet
  facet normal 1 0 0
    outer loop
      vertex 11 -4 0
      vertex 11 0 2
      vertex 11 -2 6
    endloop
  endfacet
  facet normal 0 0 1
    outer loop
      vertex 11 0 6
      vertex 5.5 -2 6
      vertex 11 -2 6
    endloop
  endfacet
  facet normal -0 0 1
    outer loop
      vertex 0 0 6
      vertex 5.5 -2 6
      vertex 11 0 6
    endloop
  endfacet
  facet normal 0 0 1
    outer loop
      vertex 5.5 -2 6
      vertex 0 0 6
      vertex 0 -2 6
    endloop
  endfacet
  facet normal -0 0 1
    outer loop
      vertex 0 3 6
      vertex 11 0 6
      vertex 11 3 6
    endloop
  endfacet
  facet normal 0 0 1
    outer loop
      vertex 11 0 6
      vertex 0 3 6
      vertex 0 0 6
    endloop
  endfacet
  facet normal 0 0.8 -0.6
    outer loop
      vertex 11 0 2
      vertex 0 3 6
      vertex 11 3 6
    endloop
  endfacet
  facet normal 0 0.8 -0.6
    outer loop
      vertex 0 3 6
      vertex 11 0 2
      vertex 0 0 2
    endloop
  endfacet
  facet normal 0 0.948683 -0.316228
    outer loop
      vertex 11 98 0
      vertex 0 100 6
      vertex 11 100 6
    endloop
  endfacet
  facet normal 0 0.948683 -0.316228
    outer loop
      vertex 0 100 6
      vertex 11 98 0
      vertex 0 98 0
    endloop
  endfacet
  facet normal 0 -1 0
    outer loop
      vertex 0 98 5.5
      vertex 11 98 8
      vertex 0 98 8
    endloop
  endfacet
  facet normal 0 -1 -0
    outer loop
      vertex 11 98 8
      vertex 0 98 5.5
      vertex 11 98 5.5
    endloop
  endfacet
  facet normal -0 0 1
    outer loop
      vertex 0 97 2
      vertex 11 0 2
      vertex 11 97 2
    endloop
  endfacet
  facet normal 0 0 1
    outer loop
      vertex 11 0 2
      vertex 0 97 2
      vertex 0 0 2
    endloop
  endfacet
  facet normal 0 -0.961524 0.274721
    outer loop
      vertex 0 98 5.5
      vertex 0 97 2
      vertex 11 98 5.5
    endloop
  endfacet
  facet normal 0 -0.961524 0.274721
    outer loop
      vertex 11 98 5.5
      vertex 0 97 2
      vertex 11 97 2
    endloop
  endfacet
  facet normal 0 0 -1
    outer loop
      vertex 0 95 8
      vertex 11 98 8
      vertex 11 95 8
    endloop
  endfacet
  facet normal -0 0 -1
    outer loop
      vertex 11 98 8
      vertex 0 95 8
      vertex 0 98 8
    endloop
  endfacet
  facet normal 0 1 -0
    outer loop
      vertex 11 100 6
      vertex 0 100 10
      vertex 11 100 10
    endloop
  endfacet
  facet normal 0 1 0
    outer loop
      vertex 0 100 10
      vertex 11 100 6
      vertex 0 100 6
    endloop
  endfacet
  facet normal -0 0 1
    outer loop
      vertex 0 100 10
      vertex 11 95 10
      vertex 11 100 10
    endloop
  endfacet
  facet normal 0 0 1
    outer loop
      vertex 11 95 10
      vertex 0 100 10
      vertex 0 95 10
    endloop
  endfacet
  facet normal 0 -1 0
    outer loop
      vertex 0 95 8
      vertex 11 95 10
      vertex 0 95 10
    endloop
  endfacet
  facet normal 0 -1 -0
    outer loop
      vertex 11 95 10
      vertex 0 95 8
      vertex 11 95 8
    endloop
  endfacet
endsolid OpenSCAD_Model
